<svg xmlns="http://www.w3.org/2000/svg" width="60" height="30" fill="none" viewBox="0 0 60 30"><g clip-path="url(#a)"><mask id="b" width="60" height="30" x="0" y="0" maskUnits="userSpaceOnUse" style="mask-type:luminance"><path fill="#fff" d="M0 0v30h60V0z"/></mask><g mask="url(#b)"><path fill="#012169" d="M0 0v30h60V0z"/><path fill="#fff" d="M61.342 2.684 36.709 15l24.633 12.316-2.684 5.368L30 18.354 1.342 32.685l-2.684-5.368L23.291 15-1.342 2.684l2.684-5.368L30 11.646l28.658-14.33z"/><mask id="c" width="60" height="30" x="0" y="0" maskUnits="userSpaceOnUse" style="mask-type:luminance"><path fill="#fff" d="M30 15h30v15zm0 0v15H0zm0 0H0V0zm0 0V0h30z"/></mask><g mask="url(#c)"><path fill="#000" d="m0 0 60 30Zm60 0L0 30Z"/><path fill="#c8102e" d="M60.895 1.79 34.473 15l26.422 13.21-1.79 3.58L30 17.235.895 31.79l-1.79-3.578L25.527 15-.895 1.79l1.79-3.58L30 12.765 59.106-1.79z"/></g><path fill="#fff" d="M35 0v10h25v10H35v10H25V20H0V10h25V0z"/><path fill="#c8102e" d="M33 0v12h27v6H33v12h-6V18H0v-6h27V0z"/></g></g><defs><clipPath id="a"><path fill="#fff" d="M0 0h60v30H0z"/></clipPath></defs></svg>