<?xml version="1.0" encoding="UTF-8" standalone="no"?>
<!-- Generator: Adobe Illustrator 15.1.0, SVG Export Plug-In  -->

<svg
   xmlns:dc="http://purl.org/dc/elements/1.1/"
   xmlns:cc="http://creativecommons.org/ns#"
   xmlns:rdf="http://www.w3.org/1999/02/22-rdf-syntax-ns#"
   xmlns:svg="http://www.w3.org/2000/svg"
   xmlns="http://www.w3.org/2000/svg"
   xmlns:sodipodi="http://sodipodi.sourceforge.net/DTD/sodipodi-0.dtd"
   xmlns:inkscape="http://www.inkscape.org/namespaces/inkscape"
   version="1.1"
   x="0px"
   y="0px"
   width="181.15865"
   height="110.107"
   viewBox="-9.142 -43.744 181.15865 110.107"
   enable-background="new -9.142 -43.744 200 200"
   xml:space="preserve"
   id="svg10"
   sodipodi:docname="Nurburgring.svg"
   inkscape:version="0.92.3 (2405546, 2018-03-11)"><metadata
   id="metadata14"><rdf:RDF><cc:Work
       rdf:about=""><dc:format>image/svg+xml</dc:format><dc:type
         rdf:resource="http://purl.org/dc/dcmitype/StillImage" /></cc:Work></rdf:RDF></metadata><sodipodi:namedview
   pagecolor="#ffffff"
   bordercolor="#666666"
   borderopacity="1"
   objecttolerance="10"
   gridtolerance="10"
   guidetolerance="10"
   inkscape:pageopacity="0"
   inkscape:pageshadow="2"
   inkscape:window-width="1920"
   inkscape:window-height="1013"
   id="namedview12"
   showgrid="false"
   inkscape:zoom="1.18"
   inkscape:cx="90.857647"
   inkscape:cy="53.851"
   inkscape:window-x="-9"
   inkscape:window-y="-9"
   inkscape:window-maximized="1"
   inkscape:current-layer="svg10" />
<defs
   id="defs2">
</defs>
<path
   d="m 15.697647,39.397 h 4.202 c 0.465,0 0.751,0.284 0.751,0.749 v 1.534 h 5.551 l 16.658,-16.713 h 6.691 l -20.573,20.627 c -0.417,0.419 -0.89,0.704 -1.635,0.704 h -11.285 c -0.932,0 -1.68,-0.582 -1.68,-1.502 v -4.44 c 0,-0.821 0.776,-0.959 1.32,-0.959 z M 0.51364651,54.545 V 43.272 c 0,-0.54 0.229,-1.118 0.61099999,-1.495 l 8.422,-8.287 c 0.354,-0.346 0.8610005,-0.623 1.3580005,-0.611 l 2.377,0.069 -5.0940005,4.822 c -0.395,0.374 -0.476,1.018 -0.476,1.562 v 11.379 l -7.26699999,7.432 c -0.525,0.539 -0.425,1.225 0.339,1.225 H 7.0996465 c 1.107,0 1.786,-0.278 2.513,-1.088 0.4450005,0.525 0.5380005,1.725 0,2.242 l -5.026,4.821 c -0.697,0.67 -1.749,1.02 -2.716,1.02 h -9.643 c -1.424,0 -1.81,-1.57 -0.814,-2.582 z M 19.154647,30.971 h 2.126 c 0.507,0 1.091,-0.094 1.455,-0.447 l 3.917,-3.806 c 0.66,-0.64 0.253,-1.791 -0.784,-1.791 h -11.08 L 5.3896465,15.528 c -0.427,-0.428 -0.672,-1.075 -0.672,-1.679 V -0.14 c 0,-0.354 -0.086,-0.758 -0.335,-1.007 l -3.246,-3.246 c -0.66899999,-0.669 -0.65899999,-1.585 0,-2.238 L 14.229647,-19.614 c 0.428,-0.424 0.672,-1.076 0.672,-1.679 v -4.365 c 0,-1.042 -0.054,-1.736 0.895,-2.685 l 7.498,-7.498 c 0.669,-0.669 0.869,-0.589 1.571,0 l 3.465,2.91 h 5.82 c 0.52,0 1.107,-0.173 1.455,-0.559 l 2.016,-2.239 c 0.347,-0.386 0.935,-0.56 1.455,-0.56 h 6.938 c 1.608,0 2.35,0.802 2.35,2.351 v 3.471 l 8.058,7.833 h 11.639 c 0.534,0 1.078,0.294 1.455,0.671 l 3.917,3.917 c 0.523,0.522 1.266,0.52 1.791,0 l 8.618,-8.505 c 0.817,-0.809 1.786,-0.787 2.573,0 l 4.364,4.365 c 0.335,0.334 0.449,0.872 0.449,1.344 v 5.259 c 0,0.622 -0.076,1.231 -1.253,1.231 h -2.889 c -0.873,0 -1.23,0.596 -1.23,1.231 v 4.701 l -6.771,6.771 h 5.54 c 0.561,0 1.17,-0.219 1.566,-0.616 l 6.491,-6.491 c 0.508,-0.508 1.007,-1.185 1.007,-1.902 v -5.279 c 0,-1.123 0.363,-1.384 1.213,-1.384 h 2.258 c 1.116,0 1.829,-0.708 1.829,-1.554 v -4.208 c 0,-0.556 -0.424,-1.065 -0.823,-1.452 l -8.169,-7.946 c -1.071,-1.042 -2.552,-1.03 -3.582,0 l -8.17,8.169 c -0.998,0.999 -1.55,0.871 -2.583,0 l -2.789,-2.35 c -0.318,-0.27 -0.702,-0.56 -1.119,-0.56 h -13.766 l -6.842,-6.662 c -0.285,-0.277 -0.544,-0.663 -0.544,-1.06 v -5.726 c 0,-1.169 -0.625,-1.95 -1.977,-1.95 h -10.334 c -0.778,0 -1.442,0.656 -2.015,1.184 l -4.252,3.917 h -5.484 l -4.476,-4.141 c -0.536,-0.497 -1.365,-0.531 -1.902,0 l -8.282,8.17 c -0.739,0.729 -1.119,1.871 -1.119,2.91 v 5.441 l -14.6620005,14.814 c -1.313,1.326 -1.451,2.486 -0.085,3.805 l 2.508,2.422 v 17.274 c 0,1.055 0.186,2.28 0.93600001,3.022 L 9.7916465,26.427 c 0.5110005,0.506 1.2280005,0.861 1.9470005,0.859 l 9.543,-0.009 c 0.771,-0.001 0.969,0.733 0.448,1.232 z"
   id="path4"
   inkscape:connector-curvature="0"
   style="clip-rule:evenodd;fill:#58585a;fill-rule:evenodd" />
<path
   d="m 28.326647,19.104 h 3.951 l 2.622,-10.148 h 2.435 c 0.951,0 1.332,0.708 1.075,1.707 l -2.181,8.442 h 3.951 l 2.376,-9.197 c 0.567,-2.196 -0.469,-4.168 -3.61,-4.168 h -7.164 z m 134.231003,5.12 h -6.032 l 0.865,-3.349 5.424,-0.015 c 0.624,-0.002 1.438,-0.398 1.583,-1.007 l 0.181,-0.75 h -3.178 c -3.143,0 -4.18,-1.973 -3.612,-4.17 l 1.152,-4.457 c 1.193,-4.614 4.199,-4.739 5.175,-4.739 h 7.901 l -3.43,13.344 c -0.941,3.664 -2.436,5.143 -6.029,5.143 z m 0.329,-13.736 -0.953,3.693 c -0.257,0.997 0.125,1.705 1.077,1.705 h 2.393 l 1.816,-7.076 h -2.42 c -0.849,0 -1.7,0.858 -1.913,1.678 z m -48.136,13.736 h -6.033 l 0.866,-3.349 5.424,-0.015 c 0.624,-0.002 1.438,-0.398 1.582,-1.007 l 0.183,-0.75 h -3.18 c -3.142,0 -4.178,-1.973 -3.609,-4.17 l 1.151,-4.457 c 1.191,-4.614 4.199,-4.739 5.174,-4.739 h 7.901 l -3.43,13.344 c -0.94,3.664 -2.436,5.143 -6.029,5.143 z m 0.331,-13.736 -0.954,3.693 c -0.257,0.997 0.125,1.705 1.075,1.705 h 2.394 l 1.815,-7.076 h -2.418 c -0.847,0 -1.7,0.858 -1.912,1.678 z M 73.781647,0.446 h 4.009 l -1.356,5.292 h 3.178 c 3.143,0 4.178,1.972 3.61,4.168 l -1.152,4.458 c -1.192,4.615 -4.199,4.739 -5.175,4.739 h -7.9 z m 4.341,13.906 0.954,-3.69 c 0.257,-0.999 -0.124,-1.707 -1.075,-1.707 h -2.394 l -1.815,7.077 h 2.419 c 0.847,0 1.699,-0.858 1.911,-1.68 z m 46.139003,4.752 h 3.96 l 2.011,-7.929 c 0.247,-0.975 0.674,-2.219 2.467,-2.219 h 1.495 l 0.817,-3.217 h -2.302 c -3.261,0 -5.514,1.792 -6.219,4.576 z m -24.900003,0 h 3.960003 l 2.011,-7.929 c 0.248,-0.975 0.674,-2.219 2.466,-2.219 h 1.497 l 0.816,-3.217 h -2.302 c -3.261,0 -5.515,1.792 -6.22,4.576 z m -40.184,0 h 3.959 l 2.011,-7.929 c 0.247,-0.975 0.673,-2.219 2.466,-2.219 h 1.498 l 0.815,-3.217 h -2.301 c -3.26,0 -5.515,1.792 -6.22,4.576 z m 40.092,-13.366 h -3.952 l -2.621,10.147 h -2.436 c -0.951,0 -1.331,-0.708 -1.075,-1.705 l 2.182,-8.442 h -3.95 l -2.376,9.195 c -0.568,2.197 0.468,4.17 3.61,4.17 h 7.164 z m 38.771003,13.366 3.462,-13.365 h -3.951 l -3.437,13.365 z M 58.923647,5.738 h -3.95 l -2.622,10.148 h -2.434 c -0.951,0 -1.333,-0.708 -1.075,-1.705 l 2.181,-8.442 h -3.951 l -2.376,9.195 c -0.568,2.197 0.468,4.17 3.611,4.17 h 7.163 z M 141.28765,0.446 c -1.035,-0.001 -2.383,0.63 -2.642,1.632 l -0.537,2.08 h 3.95 l 0.958,-3.71 z m -83.313003,0 c -1.035,-0.001 -2.383,0.63 -2.642,1.632 l -0.537,2.08 h 3.95 l 0.958,-3.71 z m -6.322,0 c -1.035,-0.001 -2.383,0.63 -2.641,1.632 l -0.538,2.08 h 3.951 l 0.958,-3.71 z m 89.983003,18.658 h 3.95 l 2.622,-10.148 h 2.434 c 0.951,0 1.332,0.708 1.075,1.707 l -2.181,8.442 h 3.949 l 2.377,-9.197 c 0.568,-2.196 -0.469,-4.168 -3.611,-4.168 h -7.163 z"
   id="path6"
   inkscape:connector-curvature="0"
   style="clip-rule:evenodd;fill:#ed1b24;fill-rule:evenodd" />
<path
   d="m 15.697647,38.273 h 4.202 c 0.465,0 0.751,0.283 0.751,0.749 v 1.531 h 5.551 l 15.59,-15.586 h 6.691 l -19.505,19.502 c -0.419,0.42 -0.898,0.705 -1.635,0.705 h -11.285 c -0.932,0 -1.68,-0.581 -1.68,-1.501 v -4.44 c 0,-0.821 0.776,-0.96 1.32,-0.96 z M 0.51364651,53.421 V 42.146 c 0,-0.537 0.229,-1.115 0.61099999,-1.493 l 8.422,-8.286 c 0.354,-0.347 0.8610005,-0.624 1.3580005,-0.611 l 2.377,0.068 -5.0940005,4.822 c -0.395,0.374 -0.476,1.02 -0.476,1.563 V 49.586 L 0.44464651,57.02 c -0.525,0.537 -0.425,1.223 0.339,1.223 H 7.0996465 c 1.107,0 1.786,-0.278 2.513,-1.086 0.4450005,0.522 0.5380005,1.724 0,2.24 l -5.026,4.821 c -0.697,0.669 -1.749,1.02 -2.716,1.02 h -9.643 c -1.424,0 -1.81,-1.57 -0.814,-2.582 z M 19.154647,29.848 h 2.126 c 0.507,0 1.091,-0.095 1.455,-0.448 l 3.917,-3.806 c 0.66,-0.64 0.253,-1.79 -0.784,-1.79 h -11.08 l -9.3990005,-9.4 c -0.427,-0.428 -0.672,-1.076 -0.672,-1.679 v -13.99 c 0,-0.354 -0.086,-0.757 -0.335,-1.007 l -3.246,-3.246 c -0.66899999,-0.669 -0.65899999,-1.585 0,-2.238 L 14.229647,-20.737 c 0.428,-0.424 0.672,-1.077 0.672,-1.679 v -4.366 c 0,-1.042 -0.054,-1.736 0.895,-2.685 l 7.498,-7.499 c 0.669,-0.67 0.869,-0.59 1.571,0 l 3.465,2.91 h 5.82 c 0.52,0 1.107,-0.174 1.455,-0.561 l 2.016,-2.238 c 0.347,-0.385 0.935,-0.559 1.455,-0.559 h 6.938 c 1.608,0 2.35,0.802 2.35,2.35 v 3.472 l 8.058,7.832 h 11.639 c 0.534,0 1.078,0.294 1.455,0.672 l 3.917,3.917 c 0.523,0.521 1.266,0.518 1.791,0 l 8.618,-8.506 c 0.817,-0.808 1.786,-0.787 2.573,0 l 4.364,4.365 c 0.335,0.333 0.449,0.872 0.449,1.343 v 5.26 c 0,0.623 -0.076,1.231 -1.253,1.231 h -2.889 c -0.873,0 -1.23,0.597 -1.23,1.231 v 4.7 l -6.771,6.771 h 5.54 c 0.561,0 1.17,-0.219 1.566,-0.616 l 6.491,-6.491 c 0.508,-0.508 1.007,-1.185 1.007,-1.903 v -5.279 c 0,-1.124 0.363,-1.384 1.213,-1.384 h 2.258 c 1.116,0 1.829,-0.708 1.829,-1.554 v -4.208 c 0,-0.557 -0.424,-1.064 -0.823,-1.452 l -8.169,-7.946 c -1.071,-1.042 -2.552,-1.031 -3.582,0 l -8.17,8.17 c -0.998,0.998 -1.55,0.871 -2.583,0 l -2.789,-2.351 c -0.318,-0.268 -0.702,-0.56 -1.119,-0.56 h -13.766 l -6.842,-6.662 c -0.285,-0.277 -0.544,-0.663 -0.544,-1.061 v -5.721 c 0,-1.17 -0.625,-1.95 -1.977,-1.95 h -10.334 c -0.778,0 -1.442,0.656 -2.015,1.183 l -4.252,3.917 h -5.484 l -4.476,-4.141 c -0.536,-0.496 -1.365,-0.53 -1.902,0 l -8.282,8.169 c -0.739,0.73 -1.119,1.872 -1.119,2.91 v 5.442 l -14.6620005,14.815 c -1.313,1.326 -1.451,2.486 -0.085,3.805 l 2.508,2.423 v 17.274 c 0,1.053 0.186,2.279 0.93600001,3.021 L 9.7916465,25.303 c 0.5110005,0.506 1.2280005,0.86 1.9470005,0.86 l 9.543,-0.008 c 0.771,-0.001 0.969,0.731 0.448,1.23 z"
   id="path8"
   inkscape:connector-curvature="0"
   style="clip-rule:evenodd;fill:#bcbdc1;fill-rule:evenodd" />
</svg>